<?xml version="1.0" encoding="iso-8859-1"?>
<!-- Generator: Adobe Illustrator 16.0.0, SVG Export Plug-In . SVG Version: 6.00 Build 0)  -->
<!DOCTYPE svg PUBLIC "-//W3C//DTD SVG 1.1//EN" "http://www.w3.org/Graphics/SVG/1.1/DTD/svg11.dtd">
<svg version="1.1" id="Capa_1" xmlns="http://www.w3.org/2000/svg" xmlns:xlink="http://www.w3.org/1999/xlink" x="0px" y="0px"
   width="483.391px" height="483.391px" viewBox="0 0 483.391 483.391" style="enable-background:new 0 0 483.391 483.391;"
   xml:space="preserve">
  <g>
    <g id="_x35_6_60_">
      <g>
        <path d="M450.891,367.555H32.5c-2.947,0-5.338,2.39-5.338,5.339v31.535c0,18.4,14.973,33.371,33.373,33.371h362.321
          c18.398,0,33.373-14.971,33.373-33.371v-31.535C456.229,369.944,453.838,367.555,450.891,367.555z"/>
        <path d="M451.717,280.329H31.674c-17.373,0-31.504,15.914-31.504,35.476s14.131,35.474,31.504,35.474h420.043
          c17.371,0,31.504-15.912,31.504-35.474S469.088,280.329,451.717,280.329z"/>
        <path d="M32.273,228.677h418.825c0.008,0,0.014,0,0.02,0c2.947,0,5.338-2.39,5.338-5.338c0-0.156-0.008-0.311-0.021-0.464
          c-0.119-55.967-22.055-102.077-63.453-133.369c-38.006-28.729-90.324-43.915-151.294-43.915
          c-60.973,0-113.289,15.186-151.295,43.915c-41.514,31.379-63.456,77.658-63.456,133.834
          C26.935,226.288,29.326,228.677,32.273,228.677z"/>
        <path d="M11.404,270.044h460.583c6.299,0,11.404-5.105,11.404-11.404c0-6.298-5.105-11.402-11.404-11.402H11.404
          C5.105,247.237,0,252.342,0,258.64C0,264.938,5.105,270.044,11.404,270.044z"/>
      </g>
    </g>
  </g>
</svg>
